<svg width="222mm" height="110mm" version="1.1" viewBox="0 0 222 110" xmlns="http://www.w3.org/2000/svg">
 <g transform="matrix(1.5459 0 0 1.5476 41.436 -14.644)">
  <path d="m70.034 75.963h-50.068c-11.009 0-19.966-8.957-19.966-19.966 0-10.25 7.764-18.721 17.719-19.84 2.677-12.775 13.985-22.119 27.281-22.119 13.297 0 24.605 9.345 27.281 22.119 9.955 1.119 17.719 9.59 17.719 19.84 0 11.009-8.957 19.966-19.966 19.966z" fill="#f00" stroke="#000" stroke-width="2.5659"/>
  <path d="m49.242 51.009 8.092-8.092c1.172-1.171 1.172-3.071 0-4.242-1.172-1.172-3.07-1.172-4.242 0l-8.092 8.092-8.092-8.092c-1.171-1.172-3.071-1.172-4.242 0-1.172 1.171-1.172 3.071 0 4.242l8.092 8.092-8.092 8.092c-1.172 1.171-1.172 3.071 0 4.242 0.585 0.586 1.354 0.879 2.121 0.879s1.536-0.293 2.121-0.879l8.092-8.092 8.092 8.092c0.586 0.586 1.354 0.879 2.121 0.879s1.535-0.293 2.121-0.879c1.172-1.171 1.172-3.071 0-4.242z" fill="#fff" stroke-linecap="round"/>
 </g>
</svg>
