<svg width="222mm" height="110mm" version="1.1" viewBox="0 0 222 110" xmlns="http://www.w3.org/2000/svg">
 <g transform="matrix(1.5459 0 0 1.5476 41.436 -14.644)">
  <path d="m70.026 57.512h-50.053c-11.006 0-19.96-6.3141-19.96-14.075 0-7.2256 7.7617-13.197 17.714-13.986 2.6762-9.0056 13.981-15.592 27.273-15.592 13.293 0 24.598 6.5876 27.273 15.592 9.952 0.78882 17.714 6.7603 17.714 13.986 0 7.7606-8.9543 14.075-19.96 14.075z" fill="#fff" stroke="#000" stroke-width="2.154"/>
  <g fill="#f00" fill-rule="evenodd" stroke-width=".079724">
   <ellipse cx="36.679" cy="67.307" rx="3.2083" ry="4.7544"/>
   <ellipse cx="45.063" cy="69.7" rx="3.2083" ry="4.7544"/>
   <ellipse cx="61.832" cy="71.41" rx="3.2083" ry="4.7544"/>
   <ellipse cx="70.217" cy="66.965" rx="3.2083" ry="4.7544"/>
   <ellipse cx="28.294" cy="71.068" rx="3.2083" ry="4.7544"/>
   <ellipse cx="19.91" cy="66.623" rx="3.2083" ry="4.7544"/>
   <ellipse cx="53.448" cy="67.307" rx="3.2083" ry="4.7544"/>
  </g>
 </g>
</svg>
